<svg id="Capa_1" data-name="Capa 1" xmlns="http://www.w3.org/2000/svg" viewBox="0 0 210.59 210.57"><defs><style>.cls-1{fill:#063;}</style></defs><title>correoico</title><path class="cls-1" d="M210.63,101.83v14.8c-.13.66-.31,1.32-.4,2-.48,3.45-.74,6.94-1.41,10.35a104.14,104.14,0,0,1-32.24,57.72,102.78,102.78,0,0,1-52.67,26.17c-3.69.66-7.42,1.1-11.13,1.64H98c-.59-.14-1.18-.31-1.78-.4-4.19-.61-8.45-.93-12.57-1.84-24.85-5.45-45.38-18.07-61-38.14C3.13,149.09-3.72,120.66,2,89.52,6.45,65.17,18.48,44.86,37.45,29,62.26,8.13,90.94.41,122.84,5.39a100.47,100.47,0,0,1,51.57,24.44C192.94,46.11,204.58,66.38,209,90.7,209.66,94.39,210.09,98.12,210.63,101.83Zm-105.24,56h48.49c11.94,0,20.14-8.17,20.16-20.09,0-19-.06-38,0-56.93.06-12.26-9.5-20.23-20.2-20.16-32.33.21-64.66.07-97,.08-11.94,0-20.14,8.16-20.15,20.09q0,28.46,0,56.93c0,11.91,8.22,20.07,20.16,20.08Z" transform="translate(-0.04 -3.93)"/><path class="cls-1" d="M53.48,147.78l39.79-40.93c2.92,2,5.73,3.93,8.56,5.85s4.26,1.94,7.12,0,5.64-3.85,8.56-5.85l39.78,40.92Z" transform="translate(-0.04 -3.93)"/><path class="cls-1" d="M153.07,70.61l-8.67,6Q125.7,89.39,107,102.23a2.37,2.37,0,0,1-3.22,0Q81.77,87,59.65,71.93c-.49-.33-.95-.71-1.78-1.32Z" transform="translate(-0.04 -3.93)"/><path class="cls-1" d="M46.59,140.14v-2q0-29,0-57.92a39.6,39.6,0,0,1,.65-4.92L85.1,101.24l-38,39.09Z" transform="translate(-0.04 -3.93)"/><path class="cls-1" d="M125.68,101.25l37.67-25.83a21.73,21.73,0,0,1,.79,3.88q.06,29.91,0,59.82c0,.33,0,.66-.13,1.56Z" transform="translate(-0.04 -3.93)"/></svg>