<svg id="Capa_1" data-name="Capa 1" xmlns="http://www.w3.org/2000/svg" viewBox="0 0 210.68 210.44"><defs><style>.cls-1{fill:#063;}</style></defs><title>instaico</title><path class="cls-1" d="M112.67,210.44H97.87c-.6-.14-1.19-.31-1.79-.39-3.52-.48-7.08-.74-10.56-1.43a103.78,103.78,0,0,1-57.61-32.07,102.91,102.91,0,0,1-26.7-55.29C.79,118.51.4,115.75,0,113V97.38c.31-2.29.59-4.58.93-6.86C3.94,70.2,11.84,52,25.47,36.61,49.68,9.25,80.24-2.71,116.57.51c14.82,1.32,28.63,6.17,41.56,13.58,37.59,21.57,58.48,65.77,51.06,108.4a104,104,0,0,1-32.68,60.17,102.68,102.68,0,0,1-52.71,26.15C120.11,209.47,116.38,209.9,112.67,210.44ZM165.3,105.28l.86,0c-.55-10.8-.43-21.68-1.83-32.36-1.69-12.85-9.25-21.61-21.79-25.72-5.88-1.93-12-2.2-18.06-2.17-16.3.09-32.6.08-48.88.67a30.28,30.28,0,0,0-20.53,9.17c-7.06,7-9.64,15.83-9.78,25.37-.24,16.16-.12,32.33,0,48.49a49.21,49.21,0,0,0,.85,9c2.42,12.75,9.54,21.51,22.09,25.56,6,1.92,12.13,2.16,18.28,2.13,16.16-.08,32.32-.16,48.47-.66A30.21,30.21,0,0,0,152.68,158c8.9-7,12.19-16.6,12.57-27.4C165.54,122.14,165.3,113.71,165.3,105.28Z" transform="translate(0 0)"/><path class="cls-1" d="M105.22,155.08c-9.38-.32-18.77-.45-28.13-1-11.8-.72-20.2-8.89-20.66-20.73-.58-15.05-.59-30.12-.6-45.19a71.18,71.18,0,0,1,1.26-14.88c2.19-10.22,9.54-16.54,20-16.9,15.19-.52,30.4-.57,45.61-.58a69.16,69.16,0,0,1,14.67,1.29c10.12,2.2,16.41,9.52,16.76,19.86.53,15.12.58,30.26.59,45.39a71.13,71.13,0,0,1-1.28,14.88c-2.18,10.09-9.59,16.14-19.84,16.88-4.71.34-9.44.55-14.16.66s-9.46,0-14.18,0Zm31-49.85a30.93,30.93,0,1,0-30.91,30.88A30.73,30.73,0,0,0,136.19,105.23Zm1.43-25.11a7.21,7.21,0,1,0-7.28-7.06A7.27,7.27,0,0,0,137.62,80.12Z" transform="translate(0 0)"/><path class="cls-1" d="M125.41,105.17a20.15,20.15,0,1,1-20.06-20.12A20,20,0,0,1,125.41,105.17Z" transform="translate(0 0)"/></svg>