<svg id="Capa_1" data-name="Capa 1" xmlns="http://www.w3.org/2000/svg" viewBox="0 0 210.43 210.56"><defs><style>.cls-1{fill:#063;}</style></defs><title>telico</title><path class="cls-1" d="M99.38-.06h14.38a14.23,14.23,0,0,0,1.56.39c3.58.47,7.21.73,10.76,1.42,18.21,3.55,34.67,11,48.55,23.39,30,26.7,41.89,60.14,35.05,99.65-4.47,25.79-17.63,47-38.3,63.09-25,19.52-53.44,26.37-84.55,20.69-26.22-4.77-47.53-18.19-63.9-39.24A101.43,101.43,0,0,1,2.71,123.27c-.62-3.68-1.06-7.4-1.59-11.1V97.78a14.64,14.64,0,0,0,.39-1.55C2,92.64,2.23,89,2.94,85.47c5.17-25.84,18-47,38.76-63.33A101.73,101.73,0,0,1,88.24,1.53C91.94.91,95.66.47,99.38-.06ZM134,160a28.28,28.28,0,0,0,13.5-2.83c4.9-2.32,8.42-6.28,12.16-10,2.74-2.71,2.72-5,0-7.76q-9-9.11-18.15-18.18c-2.82-2.81-5.08-2.78-7.92.09-3.33,3.36-6.59,6.78-10,10.1-4,3.9-8.67,4.2-13.18,1a138.75,138.75,0,0,1-30.72-30c-3.79-5.07-3.46-9.64,1-14.12C84.15,84.84,87.62,81.43,91,78c2.28-2.32,2.46-4.68.29-6.89Q81.75,61.32,72,51.74a4.34,4.34,0,0,0-6.57,0,101,101,0,0,0-8.14,8.42C51.71,67,49.54,75,51.77,83.58a75.27,75.27,0,0,0,6.16,16A122.63,122.63,0,0,0,114,154C120.27,157,126.88,159.56,134,160Z" transform="translate(-1.12 0.06)"/></svg>